<svg width="32" height="24" viewBox="0 0 32 24" fill="none" xmlns="http://www.w3.org/2000/svg">
<g clip-path="url(#clip0_2660_845)">
<rect width="32" height="24" fill="white"/>
<path fill-rule="evenodd" clip-rule="evenodd" d="M0 0V24H32V0H0Z" fill="#FFB400"/>
<mask id="mask0_2660_845" style="mask-type:luminance" maskUnits="userSpaceOnUse" x="0" y="0" width="32" height="24">
<path fill-rule="evenodd" clip-rule="evenodd" d="M0 0V24H32V0H0Z" fill="white"/>
</mask>
<g mask="url(#mask0_2660_845)">
<path fill-rule="evenodd" clip-rule="evenodd" d="M0 0V6H32V0H0Z" fill="#C51918"/>
<path fill-rule="evenodd" clip-rule="evenodd" d="M0 18V24H32V18H0Z" fill="#C51918"/>
<rect x="5.008" y="10.272" width="1.12" height="5.824" fill="#F1F9FF"/>
<path fill-rule="evenodd" clip-rule="evenodd" d="M6.576 9.26392H4.56V9.82392H4.896V10.2719H6.24V9.82392H6.576V9.26392Z" fill="#C88A02"/>
<path fill-rule="evenodd" clip-rule="evenodd" d="M6.24 16.4319H6.576V16.9919H4.56V16.4319H4.896V15.9839H6.24V16.4319Z" fill="#C88A02"/>
<path fill-rule="evenodd" clip-rule="evenodd" d="M5.568 9.37592C5.81173 9.37592 5.8365 9.28414 5.9803 9.14707C6.09195 9.04063 6.352 8.90862 6.352 8.75992C6.352 8.41971 6.00099 8.14392 5.568 8.14392C5.13501 8.14392 4.784 8.41971 4.784 8.75992C4.784 8.92559 4.96308 9.03636 5.09848 9.14707C5.24114 9.26371 5.34585 9.37592 5.568 9.37592Z" fill="#AD1619"/>
<path fill-rule="evenodd" clip-rule="evenodd" d="M4.56 16.9919H6.576V17.8879C6.576 17.8879 6.324 17.7759 6.072 17.7759C5.82 17.7759 5.568 17.8879 5.568 17.8879C5.568 17.8879 5.316 17.7759 5.064 17.7759C4.812 17.7759 4.56 17.8879 4.56 17.8879V16.9919Z" fill="#005BBF"/>
<mask id="mask1_2660_845" style="mask-type:luminance" maskUnits="userSpaceOnUse" x="4" y="16" width="3" height="2">
<path fill-rule="evenodd" clip-rule="evenodd" d="M4.56 16.9919H6.576V17.8879C6.576 17.8879 6.324 17.7759 6.072 17.7759C5.82 17.7759 5.568 17.8879 5.568 17.8879C5.568 17.8879 5.316 17.7759 5.064 17.7759C4.812 17.7759 4.56 17.8879 4.56 17.8879V16.9919Z" fill="white"/>
</mask>
<g mask="url(#mask1_2660_845)">
<path d="M4.54174 17.7119L4.49774 17.6046C4.67932 17.5238 4.86155 17.4833 5.04405 17.4833C5.16195 17.4833 5.22353 17.4997 5.3282 17.5463C5.42014 17.5872 5.4678 17.5999 5.56835 17.5999C5.6689 17.5999 5.71656 17.5872 5.8085 17.5463C5.91317 17.4997 5.97474 17.4833 6.09265 17.4833C6.27515 17.4833 6.45738 17.5238 6.63896 17.6046L6.59495 17.7119C6.427 17.6372 6.25969 17.5999 6.09265 17.5999C5.9921 17.5999 5.94444 17.6127 5.8525 17.6536C5.74783 17.7002 5.68626 17.7166 5.56835 17.7166C5.45044 17.7166 5.38887 17.7002 5.2842 17.6536C5.19225 17.6127 5.1446 17.5999 5.04405 17.5999C4.87701 17.5999 4.7097 17.6372 4.54174 17.7119Z" fill="white"/>
<path d="M4.54174 17.3759L4.49774 17.2686C4.67932 17.1878 4.86155 17.1472 5.04405 17.1472C5.16195 17.1472 5.22353 17.1637 5.3282 17.2102C5.42014 17.2512 5.4678 17.2639 5.56835 17.2639C5.6689 17.2639 5.71656 17.2512 5.8085 17.2102C5.91317 17.1637 5.97474 17.1472 6.09265 17.1472C6.27515 17.1472 6.45738 17.1878 6.63896 17.2686L6.59495 17.3759C6.427 17.3011 6.25969 17.2639 6.09265 17.2639C5.9921 17.2639 5.94444 17.2766 5.8525 17.3175C5.74783 17.3641 5.68626 17.3806 5.56835 17.3806C5.45044 17.3806 5.38887 17.3641 5.2842 17.3175C5.19225 17.2766 5.1446 17.2639 5.04405 17.2639C4.87701 17.2639 4.7097 17.3011 4.54174 17.3759Z" fill="white"/>
</g>
<rect x="15.984" y="10.272" width="1.12" height="5.824" fill="#F1F9FF"/>
<path fill-rule="evenodd" clip-rule="evenodd" d="M17.552 9.26392H15.536V9.82392H15.872V10.2719H17.216V9.82392H17.552V9.26392Z" fill="#C88A02"/>
<path fill-rule="evenodd" clip-rule="evenodd" d="M17.216 16.4319H17.552V16.9919H15.536V16.4319H15.872V15.9839H17.216V16.4319Z" fill="#C88A02"/>
<path fill-rule="evenodd" clip-rule="evenodd" d="M16.544 9.37592C16.7877 9.37592 16.8125 9.28414 16.9563 9.14707C17.068 9.04063 17.328 8.90862 17.328 8.75992C17.328 8.41971 16.977 8.14392 16.544 8.14392C16.111 8.14392 15.76 8.41971 15.76 8.75992C15.76 8.92559 15.9391 9.03636 16.0745 9.14707C16.2171 9.26371 16.3219 9.37592 16.544 9.37592Z" fill="#AD1619"/>
<path fill-rule="evenodd" clip-rule="evenodd" d="M15.536 16.9919H17.552V17.8879C17.552 17.8879 17.3 17.7759 17.048 17.7759C16.796 17.7759 16.544 17.8879 16.544 17.8879C16.544 17.8879 16.292 17.7759 16.04 17.7759C15.788 17.7759 15.536 17.8879 15.536 17.8879V16.9919Z" fill="#005BBF"/>
<mask id="mask2_2660_845" style="mask-type:luminance" maskUnits="userSpaceOnUse" x="15" y="16" width="3" height="2">
<path fill-rule="evenodd" clip-rule="evenodd" d="M15.536 16.9919H17.552V17.8879C17.552 17.8879 17.3 17.7759 17.048 17.7759C16.796 17.7759 16.544 17.8879 16.544 17.8879C16.544 17.8879 16.292 17.7759 16.04 17.7759C15.788 17.7759 15.536 17.8879 15.536 17.8879V16.9919Z" fill="white"/>
</mask>
<g mask="url(#mask2_2660_845)">
<path d="M15.5178 17.7119L15.4738 17.6046C15.6553 17.5238 15.8376 17.4833 16.0201 17.4833C16.138 17.4833 16.1995 17.4997 16.3042 17.5463C16.3962 17.5872 16.4438 17.5999 16.5444 17.5999C16.6449 17.5999 16.6926 17.5872 16.7845 17.5463C16.8892 17.4997 16.9508 17.4833 17.0687 17.4833C17.2512 17.4833 17.4334 17.5238 17.615 17.6046L17.571 17.7119C17.403 17.6372 17.2357 17.5999 17.0687 17.5999C16.9681 17.5999 16.9205 17.6127 16.8285 17.6536C16.7238 17.7002 16.6623 17.7166 16.5444 17.7166C16.4265 17.7166 16.3649 17.7002 16.2602 17.6536C16.1683 17.6127 16.1206 17.5999 16.0201 17.5999C15.853 17.5999 15.6857 17.6372 15.5178 17.7119Z" fill="white"/>
<path d="M15.5178 17.3759L15.4738 17.2686C15.6553 17.1878 15.8376 17.1472 16.0201 17.1472C16.138 17.1472 16.1995 17.1637 16.3042 17.2102C16.3962 17.2512 16.4438 17.2639 16.5444 17.2639C16.6449 17.2639 16.6926 17.2512 16.7845 17.2102C16.8892 17.1637 16.9508 17.1472 17.0687 17.1472C17.2512 17.1472 17.4334 17.1878 17.615 17.2686L17.571 17.3759C17.403 17.3011 17.2357 17.2639 17.0687 17.2639C16.9681 17.2639 16.9205 17.2766 16.8285 17.3175C16.7238 17.3641 16.6623 17.3806 16.5444 17.3806C16.4265 17.3806 16.3649 17.3641 16.2602 17.3175C16.1683 17.2766 16.1206 17.2639 16.0201 17.2639C15.853 17.2639 15.6857 17.3011 15.5178 17.3759Z" fill="white"/>
</g>
<path fill-rule="evenodd" clip-rule="evenodd" d="M4.98794 15.6799C5.18987 15.4351 5.30278 15.2124 5.30278 14.9758C5.30278 14.8267 5.2584 14.6979 5.18064 14.5926L5.19378 14.5867C5.19257 14.5873 5.4153 14.4902 5.49284 14.453C5.637 14.3839 5.76399 14.3107 5.88781 14.2206C5.96687 14.1631 6.07279 14.1005 6.23425 14.0138C6.26215 13.9988 6.33777 13.9587 6.386 13.9331L6.42694 13.9114C6.50542 13.8695 6.56385 13.8374 6.61814 13.8059C6.78731 13.7078 6.8991 13.6267 6.98461 13.5182C7.18713 13.2614 7.14508 12.9133 6.86129 12.7201C6.72225 12.6254 6.53462 12.5711 6.25959 12.5284L6.20272 12.5196C6.10877 12.505 5.92824 12.4771 5.86624 12.4674C5.73462 12.4467 5.61719 12.4274 5.51248 12.4091C6.20105 12.2946 7.18429 12.3367 7.61678 12.56L8.02784 11.7638C7.1465 11.3088 5.13837 11.3553 4.38823 11.8718C3.83804 12.2508 3.91187 12.8235 4.48432 13.0702C4.72352 13.1732 5.03535 13.2416 5.6124 13.3343C5.5157 13.3904 5.43553 13.4417 5.36083 13.496C5.28507 13.5511 5.2039 13.5979 5.10546 13.6451C5.05838 13.6676 4.91898 13.7288 4.85507 13.7569L4.85502 13.7569L4.85502 13.7569L4.8229 13.7711C4.35662 13.9831 4.13032 14.2764 4.19794 14.8059L4.23455 15.0925L4.30021 15.1126L4.98794 15.6799ZM4.41156 14.9392L4.41014 14.9433L4.41122 14.9404L4.41156 14.9392ZM16.7059 14.9758C16.7059 15.2124 16.8189 15.4351 17.0208 15.6799L17.7085 15.1126L17.7742 15.0925L17.8108 14.8059C17.8784 14.2764 17.6521 13.9831 17.1858 13.7711L17.1537 13.7569C17.0898 13.7289 16.9504 13.6676 16.9033 13.6451C16.8048 13.5979 16.7236 13.5511 16.6479 13.496C16.5732 13.4417 16.493 13.3904 16.3963 13.3343C16.9734 13.2416 17.2852 13.1732 17.5244 13.0702C18.0969 12.8235 18.1707 12.2508 17.6205 11.8718C16.8704 11.3553 14.8622 11.3088 13.9809 11.7638L14.3919 12.56C14.8244 12.3367 15.8077 12.2946 16.4962 12.4091C16.3915 12.4274 16.2741 12.4467 16.1425 12.4674C16.0805 12.4771 15.9001 12.505 15.8061 12.5195L15.8058 12.5196L15.7491 12.5284C15.4741 12.5711 15.2865 12.6254 15.1474 12.7201C14.8636 12.9133 14.8216 13.2614 15.0241 13.5182C15.1096 13.6267 15.2214 13.7078 15.3906 13.8059C15.4449 13.8374 15.5033 13.8695 15.5818 13.9114L15.6225 13.933C15.6708 13.9586 15.7465 13.9988 15.7745 14.0138C15.9359 14.1005 16.0419 14.1631 16.1209 14.2206C16.2447 14.3107 16.3717 14.3839 16.5159 14.453C16.5934 14.4902 16.8161 14.5873 16.8149 14.5867L16.8281 14.5926C16.7503 14.6979 16.7059 14.8267 16.7059 14.9758Z" fill="#AD1619"/>
<path d="M5.92335 12.3999L6.25394 12.4683V12.961C5.90184 13.242 5.008 13.7155 5.008 13.7155V12.3999H5.92335Z" fill="#F1F9FF"/>
<path d="M16.3146 12.3999L15.984 12.4683V12.961C16.3361 13.242 17.2299 13.7155 17.2299 13.7155V12.3999H16.3146Z" fill="#F1F9FF"/>
<path fill-rule="evenodd" clip-rule="evenodd" d="M14.776 7.2059V7.04192C14.1999 6.62847 13.5966 6.42175 12.9661 6.42175C12.3617 6.15428 11.7499 6.05045 11.1307 6.11027C11.1309 6.10836 11.131 6.10739 11.131 6.10739C10.2 6.0163 9.26179 6.42175 9.26179 6.42175C8.31609 6.42175 7.45197 7.04192 7.45197 7.04192V7.2059L8.58159 8.34043C8.58159 8.34043 8.89956 9.43243 11.1264 9.17578V9.17855C11.1264 9.17855 12.6007 9.13831 12.7043 9.10385C12.7455 9.09018 12.7881 9.07774 12.8316 9.06502C13.1204 8.98071 13.4501 8.88446 13.6463 8.34043L14.776 7.2059ZM11.1264 6.16044C11.0942 6.53816 10.9107 8.81509 11.1264 9.1681V6.16044Z" fill="#AD1619"/>
<path d="M12.8693 7.50134C12.8942 7.78011 12.9705 7.91075 13.0832 7.92908C13.2363 7.95396 13.3525 7.94268 13.4338 7.8988L13.5988 7.80896V7.9613C13.6508 7.96683 13.7405 7.95755 13.8625 7.93103L13.8976 8.09314L14.7238 7.31677L14.8 7.3988L13.7726 8.36462C13.6228 8.64065 13.5471 8.82312 13.5471 8.8988C13.547 9.01425 13.2466 9.08232 12.6603 9.15271C12.2011 9.20783 11.6593 9.24289 11.216 9.24841V9.25134C11.1973 9.25134 11.1785 9.24951 11.1594 9.24939C11.1406 9.24951 11.122 9.25134 11.1037 9.25134V9.24841C10.6604 9.24288 10.1186 9.20783 9.65936 9.15271C9.07314 9.08232 8.77268 9.01425 8.77264 8.8988C8.77264 8.88286 8.76761 8.86255 8.76093 8.83728C8.70513 8.76265 8.66478 8.64629 8.63788 8.53943C8.61141 8.48629 8.58132 8.42772 8.54706 8.36462L8.31952 8.15076C8.31759 8.15034 8.3156 8.1502 8.31366 8.14978V8.14587L7.51971 7.3988L7.59686 7.31677L8.34198 8.01794L8.36151 7.93103C8.48319 7.95747 8.57225 7.96678 8.62421 7.9613V7.80896L8.78925 7.8988C8.87055 7.94281 8.98745 7.95403 9.14081 7.92908C9.25343 7.91072 9.32982 7.78007 9.35468 7.50134L9.40448 6.93884L9.57245 7.47791C9.64861 7.72196 9.76545 7.82947 9.93085 7.82947C10.0921 7.8294 10.1571 7.77056 10.1642 7.62146L10.1848 7.19763L10.3762 7.57654C10.4451 7.71237 10.5401 7.77369 10.675 7.7738C10.8684 7.7738 10.9982 7.61279 10.9982 7.35974H11.2258C11.2258 7.61265 11.3548 7.77363 11.548 7.7738C11.6832 7.7738 11.7789 7.71257 11.8478 7.57654L12.0392 7.19763L12.0598 7.62146C12.067 7.77064 12.1317 7.82947 12.2932 7.82947C12.4585 7.82947 12.5744 7.72196 12.6506 7.47791L12.8195 6.93884L12.8693 7.50134ZM11.0988 8.66052C10.8069 8.6791 9.19129 8.78637 8.9455 8.90076C8.94132 8.90271 8.93591 8.90214 8.93182 8.90369C8.96812 8.91716 9.01774 8.93337 9.08026 8.94763C9.22427 8.98048 9.42922 9.0132 9.67206 9.04236C10.1464 9.09932 10.7108 9.13509 11.1594 9.13806C11.6081 9.13514 12.1729 9.09936 12.6476 9.04236C12.8905 9.0132 13.0954 8.98047 13.2394 8.94763C13.3127 8.93091 13.3695 8.91431 13.4064 8.8988C13.4195 8.89329 13.4292 8.88746 13.4357 8.88318C13.437 8.86526 13.442 8.84534 13.4474 8.82263C13.397 8.89752 13.3342 8.93868 13.2531 8.90076C13.0084 8.78624 11.3895 8.67902 11.0988 8.66052ZM12.7141 7.84705C12.6249 7.96056 12.5108 8.02514 12.3742 8.04431C13.0872 8.14443 13.5915 8.28585 13.6076 8.29041C13.6076 8.29041 13.5945 8.39905 13.5637 8.52576C13.5959 8.45935 13.6343 8.38492 13.6789 8.3031L13.6896 8.28943L13.8215 8.16443C13.6366 8.19743 13.5034 8.19655 13.4328 8.13904C13.3229 8.171 13.1942 8.17468 13.0471 8.15076C12.8898 8.12517 12.7799 8.02053 12.7141 7.84705ZM9.50897 7.84705C9.44309 8.02036 9.33405 8.12515 9.17694 8.15076C9.02986 8.17469 8.90106 8.17094 8.7912 8.13904C8.73587 8.18409 8.64176 8.19397 8.51483 8.18103L8.62225 8.28162C8.74533 8.24853 9.21151 8.13027 9.83514 8.04333C9.70478 8.0215 9.59503 7.95669 9.50897 7.84705ZM11.9025 7.86951C11.8456 7.91971 11.78 7.95317 11.7072 7.974C11.8254 7.98287 11.941 7.99198 12.0529 8.00427C11.9897 7.97327 11.9389 7.92796 11.9025 7.86951ZM10.3205 7.86951C10.2853 7.92619 10.2365 7.96947 10.176 8.00037C10.2843 7.98879 10.3959 7.98037 10.5099 7.97205C10.4398 7.95095 10.3757 7.91824 10.3205 7.86951ZM11.1115 7.75818C11.055 7.84577 10.9799 7.91304 10.8869 7.95349C10.9423 7.95176 10.9979 7.94924 11.0539 7.94861V7.94666C11.0688 7.94666 11.0839 7.94755 11.0988 7.94763C11.1138 7.94755 11.1287 7.94666 11.1437 7.94666V7.94861C11.2093 7.94934 11.2744 7.95223 11.3391 7.95447C11.2449 7.91408 11.1685 7.84663 11.1115 7.75818Z" fill="#C88A02"/>
<path fill-rule="evenodd" clip-rule="evenodd" d="M11.1122 5.34705C11.2978 5.34705 11.4482 5.19662 11.4482 5.01105C11.4482 4.82548 11.2978 4.67505 11.1122 4.67505C10.9266 4.67505 10.7762 4.82548 10.7762 5.01105C10.7762 5.19662 10.9266 5.34705 11.1122 5.34705Z" fill="#005BBF"/>
<path fill-rule="evenodd" clip-rule="evenodd" d="M10.8936 6.99679C10.9008 7.03367 10.912 7.068 10.9261 7.09859C10.8827 7.08202 10.8312 7.07241 10.776 7.07241C10.6213 7.07241 10.496 7.14763 10.496 7.24041C10.496 7.3332 10.6213 7.40841 10.776 7.40841C10.9306 7.40841 11.056 7.3332 11.056 7.24041C11.056 7.3332 11.1813 7.40841 11.336 7.40841C11.4906 7.40841 11.616 7.3332 11.616 7.24041C11.616 7.14763 11.4906 7.07241 11.336 7.07241C11.297 7.07241 11.26 7.07718 11.2263 7.08579C11.2344 7.03986 11.2341 6.9872 11.2235 6.93268C11.194 6.78088 11.0962 6.67217 11.0051 6.68988C10.914 6.70758 10.8641 6.84499 10.8936 6.99679ZM11.056 7.24041L11.0558 7.23529L11.0561 7.23537L11.056 7.24041ZM9.24614 7.21059C9.232 7.18 9.2208 7.14567 9.21363 7.10879C9.18413 6.95699 9.23404 6.81958 9.32512 6.80188C9.4162 6.78417 9.51395 6.89288 9.54346 7.04468C9.55406 7.0992 9.55441 7.15186 9.54629 7.19779C9.57997 7.18918 9.61704 7.18441 9.65597 7.18441C9.81061 7.18441 9.93597 7.25963 9.93597 7.35241C9.93597 7.4452 9.81061 7.52041 9.65597 7.52041C9.50133 7.52041 9.37597 7.4452 9.37597 7.35241L9.3761 7.34737L9.37584 7.34729L9.37597 7.35241C9.37597 7.4452 9.25061 7.52041 9.09597 7.52041C8.94133 7.52041 8.81597 7.4452 8.81597 7.35241C8.81597 7.25963 8.94133 7.18441 9.09597 7.18441C9.15123 7.18441 9.20275 7.19402 9.24614 7.21059ZM12.7539 7.31297C12.741 7.40485 12.6064 7.46189 12.4532 7.44037C12.3001 7.41885 12.1864 7.32692 12.1994 7.23504C12.2123 7.14316 12.3469 7.08612 12.5 7.10764C12.5547 7.11533 12.6044 7.13201 12.6451 7.15447C12.6353 7.1222 12.629 7.08664 12.627 7.04913C12.619 6.8947 12.6875 6.76557 12.7802 6.76072C12.8728 6.75586 12.9545 6.87711 12.9626 7.03154C12.9655 7.08701 12.9585 7.13921 12.9441 7.18356C12.9786 7.17972 13.016 7.18016 13.0546 7.18558C13.2077 7.2071 13.3214 7.29903 13.3085 7.39091C13.2955 7.48279 13.1609 7.53983 13.0078 7.51831C12.8547 7.49678 12.741 7.40485 12.7539 7.31297ZM12.7539 7.31297L12.7545 7.30788L12.7547 7.308L12.7539 7.31297ZM13.8203 7.75723C13.9569 7.82983 14.1029 7.82227 14.1464 7.74034L14.1487 7.73576C14.1622 7.74999 14.1781 7.76036 14.1962 7.76591C14.285 7.79304 14.3936 7.69514 14.4388 7.54726C14.484 7.39938 14.4487 7.2575 14.36 7.23038C14.2712 7.20325 14.1627 7.30114 14.1175 7.44902C14.1065 7.48495 14.1002 7.52052 14.0984 7.55418C14.0678 7.51917 14.0269 7.4865 13.9781 7.46056C13.8415 7.38796 13.6955 7.39552 13.652 7.47744C13.6084 7.55936 13.6838 7.68463 13.8203 7.75723ZM8.32479 7.79154C8.18825 7.86414 8.04225 7.85658 7.99869 7.77465C7.99789 7.77314 7.99712 7.77161 7.9964 7.77007C7.98295 7.7843 7.96702 7.79466 7.94886 7.80022C7.86013 7.82734 7.75155 7.72945 7.70634 7.58157C7.66113 7.43369 7.6964 7.29181 7.78513 7.26469C7.87386 7.23756 7.98244 7.33545 8.02766 7.48333C8.03864 7.51926 8.04487 7.55483 8.04674 7.58849C8.07728 7.55347 8.11826 7.52081 8.16705 7.49487C8.30359 7.42227 8.44958 7.42983 8.49314 7.51175C8.5367 7.59367 8.46133 7.71894 8.32479 7.79154Z" fill="#C88A02"/>
<path fill-rule="evenodd" clip-rule="evenodd" d="M10.9868 4.07654H11.2201V4.22394H11.3726V4.45727H11.2201V4.92394H11.3726V5.15727H10.832V4.92394H10.9868V4.45727H10.832V4.22394H10.9868V4.07654Z" fill="#C88A02"/>
<rect x="10.944" y="5.34399" width="0.448" height="1.456" fill="#C88A02"/>
<path d="M9.14055 5.58785L9.13859 5.69984C8.14549 5.6825 7.57584 5.82742 7.43124 6.11627C7.28174 6.4149 7.30954 6.77792 7.51902 7.20915L7.41827 7.25809C7.19477 6.79799 7.16425 6.3994 7.33109 6.06614C7.50282 5.7231 8.10544 5.56978 9.14055 5.58785Z" fill="white"/>
<path d="M9.33268 6.58095L9.27526 6.67711C9.05899 6.54798 8.95074 6.3276 8.95074 6.0239C8.95074 5.58742 9.17559 5.33147 9.67294 5.15631C9.99036 5.04452 10.424 5.09035 10.975 5.29013L10.9368 5.39542C10.4078 5.20364 9.99855 5.16038 9.71015 5.26195C9.25396 5.42261 9.06274 5.64028 9.06274 6.0239C9.06274 6.29041 9.15265 6.47346 9.33268 6.58095Z" fill="white"/>
<path d="M7.66012 7.03733L7.44878 7.11156C7.2295 6.48721 7.29212 6.0632 7.66681 5.88029C7.99698 5.71912 8.47816 5.65353 9.11276 5.67925L9.10369 5.90306C8.50285 5.87872 8.05585 5.93965 7.76507 6.08159C7.51883 6.20179 7.47378 6.50678 7.66012 7.03733Z" fill="#C88A02"/>
<path d="M10.1292 5.4386C9.61709 5.4386 9.40678 5.56333 9.28663 5.93162C9.21006 6.16632 9.28432 6.36664 9.52511 6.55362L9.38772 6.73054C9.07598 6.48846 8.96607 6.19198 9.07367 5.86215C9.2268 5.3928 9.52725 5.2146 10.1292 5.2146C10.5238 5.2146 10.8311 5.31826 11.0451 5.52922L11.0785 5.56212V6.64208H10.8545V5.65786C10.6874 5.51268 10.4473 5.4386 10.1292 5.4386Z" fill="#C88A02"/>
<path d="M13.049 5.69979L13.0509 5.81177C14.044 5.79444 14.6137 5.93936 14.7583 6.22821C14.9078 6.52684 14.88 6.88986 14.6705 7.32109L14.7712 7.37003C14.9947 6.90993 15.0253 6.51134 14.8584 6.17807C14.6867 5.83503 14.0841 5.68172 13.049 5.69979Z" fill="white"/>
<path d="M12.6983 6.60426L12.7557 6.70043C12.972 6.57129 13.0802 6.35092 13.0802 6.04722C13.0802 5.61074 12.8554 5.35478 12.358 5.17962C12.0406 5.06783 11.607 5.11367 11.056 5.31345L11.0941 5.41874C11.6231 5.22696 12.0324 5.18369 12.3208 5.28526C12.777 5.44592 12.9682 5.6636 12.9682 6.04722C12.9682 6.31373 12.8783 6.49677 12.6983 6.60426Z" fill="white"/>
<path d="M14.5992 7.14939L14.8106 7.22362C15.0298 6.59927 14.9672 6.17526 14.5925 5.99235C14.2624 5.83118 13.7812 5.76559 13.1466 5.79131L13.1557 6.01513C13.7565 5.99078 14.2035 6.05171 14.4943 6.19365C14.7405 6.31385 14.7856 6.61884 14.5992 7.14939Z" fill="#C88A02"/>
<path d="M12.1172 5.45593C12.6294 5.45593 12.8397 5.58067 12.9598 5.94895C13.0364 6.18366 12.9621 6.38397 12.7214 6.57096L12.8587 6.74788C13.1705 6.5058 13.2804 6.20931 13.1728 5.87948C13.0197 5.41013 12.7192 5.23193 12.1172 5.23193C11.7227 5.23193 11.4153 5.33559 11.2013 5.54655L11.1679 5.57945V6.65942H11.3919V5.67519C11.5591 5.53002 11.7992 5.45593 12.1172 5.45593Z" fill="#C88A02"/>
<path opacity="0.3" fill-rule="evenodd" clip-rule="evenodd" d="M7.47198 9.26392H14.752V15.8047C14.752 15.8047 14.2112 17.9999 11.112 17.9999C8.01276 17.9999 7.47198 15.7469 7.47198 15.7469V9.26392Z" fill="#E1E5E8"/>
<mask id="mask3_2660_845" style="mask-type:luminance" maskUnits="userSpaceOnUse" x="7" y="9" width="8" height="9">
<path fill-rule="evenodd" clip-rule="evenodd" d="M7.47198 9.26392H14.752V15.8047C14.752 15.8047 14.2112 17.9999 11.112 17.9999C8.01276 17.9999 7.47198 15.7469 7.47198 15.7469V9.26392Z" fill="white"/>
</mask>
<g mask="url(#mask3_2660_845)">
<rect x="7.47198" y="13.2959" width="3.696" height="4.368" fill="#FFC034"/>
<rect x="7.91998" y="13.5199" width="0.448" height="4.144" fill="#AD1619"/>
<rect x="9.48798" y="13.5199" width="0.448" height="4.144" fill="#AD1619"/>
<rect x="8.70398" y="13.5199" width="0.448" height="4.144" fill="#AD1619"/>
<rect x="10.272" y="13.5199" width="0.448" height="4.144" fill="#AD1619"/>
<rect x="7.47198" y="9.15186" width="3.696" height="4.256" fill="#AD1619"/>
<rect x="11.056" y="13.184" width="3.696" height="4.256" fill="#AD1619"/>
<rect x="11.056" y="9.26392" width="3.92" height="4.144" fill="#F1F9FF"/>
<path fill-rule="evenodd" clip-rule="evenodd" d="M9.03998 9.59998H9.37598V10.5292H9.59998V10.0646H9.93598V10.5292H10.272V11.1099H9.93598V12.1552H10.272V12.736H8.25598V12.1552H8.59198V11.1099H8.25598V10.5292H8.47998V10.0646H8.81598V10.5292H9.03998V9.59998Z" fill="#C88A02"/>
<path d="M12.9788 9.79497L13.2082 9.54944L13.6897 9.99926L13.4604 10.2448L12.9788 9.79497Z" fill="#C88A02"/>
<path fill-rule="evenodd" clip-rule="evenodd" d="M14.36 16.1399V13.6879H11.56V16.1194L11.5644 16.1383C11.7062 16.7423 12.1889 17.0479 12.96 17.0479C13.7304 17.0479 14.213 16.7502 14.3553 16.1593L14.36 16.1399ZM12.96 16.7119C12.3413 16.7119 12.0034 16.5035 11.896 16.0798V14.0239H14.024V16.0993C13.9169 16.5091 13.5789 16.7119 12.96 16.7119Z" fill="#FFC034"/>
<path fill-rule="evenodd" clip-rule="evenodd" d="M13.0756 13.8928H12.8423V15.0045L11.9225 14.0041L11.7576 14.1557L12.5894 15.0604H11.8357V15.3964H12.4147H12.6077L11.7576 16.3211L11.9225 16.4727L12.8423 15.4723V16.7717H13.0756V15.5892L13.8879 16.4727L14.0528 16.3211L13.2026 15.3964H14.1516V15.0604H13.221L14.0528 14.1557L13.8879 14.0041L13.0756 14.8876V13.8928Z" fill="#FFC034"/>
<path fill-rule="evenodd" clip-rule="evenodd" d="M13.4827 17.4426C13.4827 17.4426 11.1105 17.6291 11.1105 16.0991C11.1105 16.0991 11.0879 17.4426 8.6109 17.4426V18.6504H13.4827V17.4426Z" fill="#F1F9FF"/>
<path fill-rule="evenodd" clip-rule="evenodd" d="M11.112 14.1919C11.5759 14.1919 11.952 13.7907 11.952 13.2959C11.952 12.8011 11.5759 12.3999 11.112 12.3999C10.6481 12.3999 10.272 12.8011 10.272 13.2959C10.272 13.7907 10.6481 14.1919 11.112 14.1919Z" fill="#005BBF" stroke="#AD1619" stroke-width="1.16667"/>
</g>
</g>
</g>
<defs>
<clipPath id="clip0_2660_845">
<rect width="32" height="24" fill="white"/>
</clipPath>
</defs>
</svg>
