<svg width="80" height="72" viewBox="0 0 80 72" fill="none" xmlns="http://www.w3.org/2000/svg">
<path d="M80 12.6C79.8333 6.6 76.3167 3.6 69.45 3.6H10.5C3.66667 3.6 0.166667 6.6 0 12.6V62.955C0.166667 68.985 3.66667 72 10.5 72H69.45C76.3167 72 79.8333 68.985 80 62.955V12.6Z" fill="url(#paint0_linear_1_1002)"/>
<path d="M80 9.45C80 3.15 76.4833 0 69.45 0H10.5C3.5 0 0 3.15 0 9.45V12.6C0.166667 6.6 3.66667 3.6 10.5 3.6H69.45C76.3167 3.6 79.8333 6.6 80 12.6V9.45Z" fill="url(#paint1_linear_1_1002)"/>
<path d="M32.1667 32.9615C30.2334 30.9949 27.8834 30.0115 25.1167 30.0115C22.35 30.0115 20 30.9949 18.0667 32.9615C16.1 34.8949 15.1167 37.2449 15.1167 40.0115H35.1167C35.1167 37.2449 34.1334 34.8949 32.1667 32.9615Z" fill="white"/>
<path d="M29.3667 35.7615C28.2 34.5949 26.7834 34.0115 25.1167 34.0115C23.4834 34.0115 22.0834 34.5949 20.9167 35.7615C19.7167 36.9282 19.1167 38.3449 19.1167 40.0115H31.1167C31.1167 38.3449 30.5334 36.9282 29.3667 35.7615Z" fill="#3D465D"/>
<path d="M62.1667 32.9615C60.2334 30.9949 57.8834 30.0115 55.1167 30.0115C52.35 30.0115 50 30.9949 48.0667 32.9615C46.1 34.8949 45.1167 37.2449 45.1167 40.0115H65.1167C65.1167 37.2449 64.1334 34.8949 62.1667 32.9615Z" fill="white"/>
<path d="M59.3667 35.7615C58.2 34.5949 56.7834 34.0115 55.1167 34.0115C53.4834 34.0115 52.0834 34.5949 50.9167 35.7615C49.7167 36.9282 49.1167 38.3449 49.1167 40.0115H61.1167C61.1167 38.3449 60.5334 36.9282 59.3667 35.7615Z" fill="#3D465D"/>
<path d="M14.0667 32.6115L14.8667 35.5115C15 36.0782 15.3 36.4949 15.7667 36.7615C16.2333 37.0282 16.7333 37.0949 17.2667 36.9615L32.7167 32.8115C33.2833 32.6782 33.7 32.3615 33.9667 31.8615C34.2333 31.4282 34.3 30.9282 34.1667 30.3615L33.3667 27.4615C33.2333 26.9282 32.9333 26.5115 32.4667 26.2115C32 25.9782 31.4833 25.9282 30.9167 26.0615L15.4667 30.2115C14.9333 30.3449 14.5333 30.6449 14.2667 31.1115C14 31.5782 13.9333 32.0782 14.0667 32.6115Z" fill="#3D465D"/>
<path d="M46.3167 26.9615C46.55 27.3949 46.95 27.6782 47.5167 27.8115L62.9667 31.9615C63.5 32.1282 64.0167 32.0949 64.5167 31.8615C64.95 31.5615 65.2333 31.1449 65.3667 30.6115L66.1667 27.7115C66.3 27.1449 66.25 26.6449 66.0167 26.2115C65.7167 25.7115 65.3 25.3782 64.7667 25.2115L49.3167 21.0615C48.75 20.9282 48.25 21.0115 47.8167 21.3115C47.3167 21.5449 47 21.9449 46.8667 22.5115L46.0667 25.4115C45.9333 25.9449 46.0167 26.4615 46.3167 26.9615Z" fill="#3D465D"/>
<path d="M50.0666 46.9115C49.6 46.6115 49.0833 46.5449 48.5166 46.7115C47.9833 46.8449 47.5666 47.1282 47.2666 47.5615C47 47.9282 46.6166 48.2782 46.1166 48.6115C44.8833 49.3782 43.4333 49.7615 41.7666 49.7615C41 49.7615 40.2833 49.6949 39.6166 49.5615C39.05 49.4615 38.5333 49.5615 38.0666 49.8615C37.6 50.0949 37.3 50.4949 37.1666 51.0615C37.0333 51.5615 37.1333 52.0449 37.4666 52.5115C37.7333 52.9115 38.1666 53.1782 38.7666 53.3115C39.6666 53.5115 40.6666 53.6115 41.7666 53.6115C44.3333 53.6115 46.55 53.0115 48.4166 51.8115L48.3666 51.8615C49.5 51.1615 50.3333 50.3782 50.8666 49.5115C51.1333 49.0449 51.2 48.5615 51.0666 48.0615C50.9 47.5282 50.5666 47.1449 50.0666 46.9115Z" fill="#3D465D"/>
<defs>
<linearGradient id="paint0_linear_1_1002" x1="40" y1="2.02342e-07" x2="40" y2="72" gradientUnits="userSpaceOnUse">
<stop stop-color="#71CF93"/>
<stop offset="1" stop-color="#59B15C"/>
</linearGradient>
<linearGradient id="paint1_linear_1_1002" x1="39.75" y1="-0.225" x2="39.75" y2="38.925" gradientUnits="userSpaceOnUse">
<stop stop-color="#85DFAF"/>
<stop offset="1" stop-color="#69C581"/>
</linearGradient>
</defs>
</svg>
